<?xml version="1.0" encoding="UTF-8"?>
<svg version="1.1" xmlns="http://www.w3.org/2000/svg" width="512" height="512">
<path d="M0 0 C3.59240583 0.06614317 7.16763461 0.25052684 10.75549984 0.43951988 C13.26881264 0.48435335 15.782337 0.51848341 18.29593563 0.54242516 C24.20456085 0.62427645 30.10199657 0.81266714 36.00606215 1.05481291 C43.39715408 1.35124936 50.78965874 1.47866357 58.18518734 1.61139488 C71.35214254 1.86786137 84.5101596 2.27204436 97.66956234 2.78326988 C96.73574607 4.67092646 95.7995695 6.55741549 94.86243343 8.44342613 C94.34136013 9.49409264 93.82028683 10.54475914 93.28342342 11.62726402 C90.81174878 16.46077773 88.06498191 21.11662345 85.29456234 25.78326988 C84.05643233 27.88675958 82.81950228 29.99095593 81.58362484 32.09576988 C80.94328304 33.18631676 80.30294125 34.27686363 79.64319515 35.40045738 C76.27664333 41.1707372 72.97464426 46.97766539 69.66956234 52.78326988 C64.15791872 62.45864212 58.58530879 72.09610471 52.95862484 81.70514488 C48.47790088 89.36900758 44.06449482 97.07005824 39.66956234 104.78326988 C34.71577048 113.4772931 29.72517884 122.14788662 24.66956234 130.78326988 C19.73633686 139.22222823 14.81837995 147.66983598 9.94519711 156.14362144 C9.22557267 157.39331701 8.50424519 158.64203358 7.78113461 159.88971519 C6.7744246 161.62757505 5.77458127 163.36940713 4.77503109 165.11139488 C4.19906185 166.11074059 3.62309261 167.11008629 3.02966976 168.13971519 C1.34512416 171.32525184 1.34512416 171.32525184 0.66956234 174.78326988 C1.5964021 177.25535009 1.5964021 177.25535009 3.14221859 179.79889488 C3.70473324 180.78994225 4.26724789 181.78098961 4.84680843 182.80206871 C5.46894222 183.8683651 6.09107601 184.93466148 6.73206234 186.03326988 C7.36966488 187.14790611 8.00726742 188.26254234 8.66419125 189.41095543 C10.65212652 192.87676686 12.65793925 196.33116416 14.66956234 199.78326988 C15.2581805 200.79663414 15.84679867 201.8099984 16.45325375 202.85407066 C18.72078354 206.75583276 20.99291864 210.65480845 23.27527523 214.54791832 C27.79676198 222.26107964 32.24422847 230.01476306 36.66956234 237.78326988 C42.20909337 247.50469972 47.80331421 257.19222293 53.45300961 266.85016441 C59.59861278 277.35938077 65.67569883 287.90775652 71.75208187 298.45709801 C73.71022561 301.85380674 75.67183161 305.24849447 77.63440609 308.64264488 C88.84902446 328.04176732 88.84902446 328.04176732 94.10706234 337.34576988 C94.47879574 338.00077477 94.85052914 338.65577965 95.23352718 339.33063316 C97.66956234 343.66335549 97.66956234 343.66335549 97.66956234 344.78326988 C60.37956234 344.78326988 23.08956234 344.78326988 -15.33043766 344.78326988 C-36.58043766 307.94993655 -57.83043766 271.11660322 -79.08043766 234.28326988 C-79.70015446 233.20940025 -80.31987125 232.13553062 -80.95836735 231.02911949 C-82.19967426 228.8769057 -83.43992066 226.72407987 -84.67907047 224.5706234 C-87.58332484 219.52641225 -90.49733781 214.48874617 -93.45055485 209.4730587 C-94.49323392 207.70104279 -95.53245686 205.92704487 -96.57067204 204.15241051 C-97.87244653 201.92965269 -99.18064297 199.71063841 -100.49645329 197.49616051 C-104.87151845 190.00356257 -108.75537617 182.7766813 -108.76793766 173.90826988 C-108.79694157 172.55088707 -108.79694157 172.55088707 -108.82653141 171.16608238 C-107.39391923 161.39724657 -102.49927311 153.08303239 -97.51793766 144.72076988 C-96.51167151 143.00460364 -95.50541949 141.28842891 -94.50002384 139.57175255 C-93.4636051 137.8045583 -92.42342083 136.03962298 -91.38268375 134.2749691 C-88.15895867 128.80069388 -84.9984993 123.28987168 -81.83043766 117.78326988 C-80.58072452 115.61643775 -79.33072381 113.44977144 -78.08043766 111.28326988 C-77.46168766 110.21076988 -76.84293766 109.13826988 -76.20543766 108.03326988 C-69.33043766 96.11660322 -62.45543766 84.19993655 -55.58043766 72.28326988 C-54.96160709 71.21060875 -54.34277653 70.13794762 -53.70519352 69.0327816 C-52.45608248 66.86769918 -51.20689637 64.70266006 -49.95763493 62.53766441 C-46.81841457 57.09711282 -43.68053203 51.65579772 -40.54528141 46.21295738 C-39.91235172 45.11467613 -39.27942204 44.01639488 -38.62731266 42.88483238 C-37.46143445 40.86169078 -36.29600045 38.83829306 -35.13121891 36.81451988 C-33.99181699 34.83779004 -32.8262791 32.8759401 -31.6377039 30.92838097 C-29.74246888 27.69157854 -28.26377968 24.36488391 -26.78257084 20.9206295 C-20.50409636 7.25922551 -15.591631 0.27155683 0 0 Z " fill="#4A8AF4" transform="translate(129.33043766021729,82.21673011779785)"/>
<path d="M0 0 C37.29 0 74.58 0 113 0 C144.875 55.25 144.875 55.25 176.75 110.5 C177.6795752 112.11080444 177.6795752 112.11080444 178.62792969 113.75415039 C179.8692366 115.90636418 181.109483 118.05919001 182.34863281 120.21264648 C185.25288718 125.25685763 188.16690015 130.29452371 191.12011719 135.31021118 C192.16279626 137.08222709 193.2020192 138.85622501 194.24023438 140.63085938 C195.54200887 142.85361719 196.85020531 145.07263147 198.16601562 147.28710938 C202.54108079 154.77970731 206.42493851 162.00658858 206.4375 170.875 C206.45683594 171.77992188 206.47617187 172.68484375 206.49609375 173.6171875 C205.06348157 183.38602332 200.16883545 191.70023749 195.1875 200.0625 C194.18123385 201.77866624 193.17498183 203.49484097 192.16958618 205.21151733 C191.13316744 206.97871158 190.09298317 208.74364691 189.05224609 210.50830078 C185.82852133 215.98257547 182.66801412 221.49337139 179.5 227 C178.24900371 229.1694472 176.99770096 231.3387177 175.74609375 233.5078125 C175.12718262 234.58063477 174.50827148 235.65345703 173.87060547 236.75878906 C172.00980544 239.98301005 170.14765709 243.20644874 168.28515625 246.4296875 C162.14791426 257.05403737 156.02961666 267.68856681 149.9515686 278.34686279 C136.5493777 301.84718045 136.5493777 301.84718045 132.38445568 308.7038784 C129.32356286 313.80363697 126.55160929 318.8556989 124.18319702 324.31506348 C116.99295909 340.02689889 116.99295909 340.02689889 110.31110382 343.32870483 C102.61451971 345.35854579 94.78535241 344.75837511 86.9140625 344.34375 C84.4007497 344.29891653 81.88722534 344.26478648 79.37362671 344.24084473 C73.46500149 344.15899343 67.56756577 343.97060274 61.66350019 343.72845697 C54.27240826 343.43202052 46.8799036 343.30460631 39.484375 343.171875 C26.3174198 342.91540851 13.15940274 342.51122552 0 342 C0.93308191 340.11380732 1.86852714 338.22878366 2.80493164 336.34423828 C3.58592979 334.76946213 3.58592979 334.76946213 4.38270569 333.16287231 C6.87648183 328.28590251 9.64490279 323.58522083 12.4375 318.875 C13.67768236 316.76597714 14.91724438 314.65658939 16.15625 312.546875 C17.10757812 310.92942383 17.10757812 310.92942383 18.078125 309.27929688 C21.22484108 303.91005267 24.33158619 298.51791809 27.4375 293.125 C28.37033813 291.50634033 28.37033813 291.50634033 29.32202148 289.85498047 C30.58449731 287.66417049 31.84678556 285.4732524 33.10888672 283.28222656 C36.23680148 277.85340058 39.36858448 272.42680719 42.5 267 C43.75001879 264.83334417 45.00001878 262.6666775 46.25 260.5 C53.75 247.5 61.25 234.5 68.75 221.5 C69.36979736 220.42564697 69.98959473 219.35129395 70.62817383 218.24438477 C71.86746267 216.09635954 73.10688141 213.94840925 74.34643555 211.80053711 C77.28202567 206.71344451 80.21625672 201.62558153 83.14590454 196.5350647 C84.53328095 194.12456252 85.92139624 191.71448624 87.30957031 189.30444336 C88.29173815 187.59856032 89.27283385 185.89206014 90.25390625 184.18554688 C90.846875 183.15623047 91.43984375 182.12691406 92.05078125 181.06640625 C92.57325439 180.15834229 93.09572754 179.25027832 93.6340332 178.31469727 C94.69977966 176.50873799 95.83680752 174.74478871 97 173 C96.65848532 169.116822 95.23633781 166.24676465 93.33203125 162.88671875 C92.77588135 161.89873291 92.21973145 160.91074707 91.64672852 159.89282227 C91.04143311 158.83506592 90.4361377 157.77730957 89.8125 156.6875 C89.184646 155.57882568 88.55679199 154.47015137 87.90991211 153.32788086 C82.53806301 143.87034342 77.06304021 134.47298349 71.5625 125.08984375 C67.8678669 118.78429581 64.21147319 112.45705564 60.5625 106.125 C59.93996338 105.04484619 59.31742676 103.96469238 58.67602539 102.85180664 C57.41423174 100.66203666 56.15259466 98.47217645 54.89111328 96.28222656 C51.76319852 90.85340058 48.63141552 85.42680719 45.5 80 C44.24998121 77.83334417 42.99998122 75.6666775 41.75 73.5 C41.13125 72.4275 40.5125 71.355 39.875 70.25 C38 67 36.125 63.75 34.25 60.5 C33.63068604 59.4265332 33.01137207 58.35306641 32.37329102 57.24707031 C31.12895002 55.09019097 29.88464636 52.93329008 28.64038086 50.77636719 C25.42911098 45.2097733 22.21711987 39.64359712 19.00390625 34.078125 C15.87040779 28.65039617 12.73892087 23.22151268 9.609375 17.79150391 C8.59703682 16.03557631 7.5841027 14.27999201 6.5703125 12.52490234 C5.39903887 10.49691304 4.23026876 8.46750876 3.0625 6.4375 C2.15177734 4.85775391 2.15177734 4.85775391 1.22265625 3.24609375 C0 1 0 1 0 0 Z " fill="#159F5C" transform="translate(285,85)"/>
<path d="M0 0 C2.51911283 0.03173597 5.0383311 0.05592127 7.55758667 0.07289124 C13.49185715 0.13098675 19.42130965 0.26467683 25.35311115 0.43583256 C32.11181951 0.62656782 38.87080076 0.71948895 45.63153481 0.80465496 C59.52555968 0.98184899 73.41482747 1.28039644 87.3046875 1.66015625 C86.37087123 3.54781282 85.43469466 5.43430186 84.49755859 7.3203125 C83.97648529 8.370979 83.45541199 9.42164551 82.91854858 10.50415039 C80.44687394 15.3376641 77.70010707 19.99350982 74.9296875 24.66015625 C73.69155749 26.76364595 72.45462744 28.8678423 71.21875 30.97265625 C70.5784082 32.06320313 69.93806641 33.15375 69.27832031 34.27734375 C65.91176849 40.04762356 62.60976942 45.85455176 59.3046875 51.66015625 C53.79304388 61.33552848 48.22043395 70.97299107 42.59375 80.58203125 C38.11302604 88.24589395 33.69961998 95.9469446 29.3046875 103.66015625 C23.80065228 113.31986973 18.24292525 122.94594255 12.61791992 132.53588867 C9.36494712 138.09268239 6.15322172 143.67059839 2.98046875 149.2734375 C2.61629852 149.91546112 2.2521283 150.55748474 1.87692261 151.21896362 C0.0935824 154.36334837 -1.68490359 157.51029395 -3.45507812 160.66210938 C-4.09509766 161.79197266 -4.73511719 162.92183594 -5.39453125 164.0859375 C-5.96002686 165.09052002 -6.52552246 166.09510254 -7.1081543 167.13012695 C-8.48457613 169.32422931 -9.77252126 170.9485491 -11.6953125 172.66015625 C-21.81692557 155.63473912 -31.7379361 138.49836638 -41.61132812 121.328125 C-42.88367322 119.11614201 -44.15670135 116.90455177 -45.43041992 114.69335938 C-46.68051489 112.52164032 -47.92811544 110.34848332 -49.1730957 108.17382812 C-52.23390604 102.84474234 -55.35032892 97.56550051 -58.59765625 92.34765625 C-59.21366699 91.34637695 -59.82967773 90.34509766 -60.46435547 89.31347656 C-61.62966627 87.42702461 -62.81146852 85.5506257 -64.01220703 83.68652344 C-64.5276709 82.84766602 -65.04313477 82.00880859 -65.57421875 81.14453125 C-66.0338501 80.41975586 -66.49348145 79.69498047 -66.96704102 78.94824219 C-68.27470419 74.83982139 -66.21123685 71.66305048 -64.3293457 68.00488281 C-63.80687256 67.1125293 -63.28439941 66.22017578 -62.74609375 65.30078125 C-62.15272217 64.28040771 -61.55935059 63.26003418 -60.94799805 62.20874023 C-59.9876062 60.57594116 -59.9876062 60.57594116 -59.0078125 58.91015625 C-57.99346683 57.16978372 -56.97913014 55.42940588 -55.96534729 53.68870544 C-54.91240771 51.88219462 -53.85716714 50.07704147 -52.80175781 48.27197266 C-49.46770121 42.56322148 -46.1788198 36.82843263 -42.8828125 31.09765625 C-41.17409329 28.12693238 -39.46844927 25.16347908 -37.67962646 22.24014282 C-36.17992081 19.68575405 -35.08393879 17.14386924 -34.04685974 14.37149048 C-27.29873669 -1.98511062 -15.97282493 -0.59078975 0 0 Z " fill="#DB5247" transform="translate(139.6953125,83.33984375)"/>
<path d="M0 0 C2.65565787 2.39969682 4.27998553 4.96444189 6.046875 8.06640625 C6.63662109 9.09572266 7.22636719 10.12503906 7.83398438 11.18554688 C8.46626953 12.29994141 9.09855469 13.41433594 9.75 14.5625 C10.41941347 15.73401461 11.08934426 16.90523376 11.75976562 18.07617188 C13.15239997 20.50943834 14.54279747 22.94396232 15.93164062 25.37939453 C19.10029728 30.93157527 22.30168195 36.46487224 25.5 42 C29.32501524 48.62620843 33.14706028 55.25409231 36.9609375 61.88671875 C37.93752319 63.58296387 37.93752319 63.58296387 38.93383789 65.31347656 C40.21143211 67.53412203 41.48672345 69.75609424 42.75952148 71.97949219 C45.42911051 76.62704463 48.11588086 81.24310058 51.01171875 85.75390625 C51.66841553 86.78801636 51.66841553 86.78801636 52.33837891 87.84301758 C53.45921939 89.58910554 54.60533606 91.31890131 55.75390625 93.046875 C57.38482116 96.91198995 56.53378648 98.17176389 55 102 C54.06721403 103.81322256 53.08106039 105.5997186 52.05078125 107.359375 C51.45740967 108.37974854 50.86403809 109.40012207 50.25268555 110.45141602 C49.2922937 112.08421509 49.2922937 112.08421509 48.3125 113.75 C47.29815433 115.49037253 46.28381764 117.23075037 45.27003479 118.97145081 C44.21709521 120.77796163 43.16185464 122.58311478 42.10644531 124.38818359 C38.77238871 130.09693477 35.4835073 135.83172362 32.1875 141.5625 C30.47878079 144.53322387 28.77313677 147.49667717 26.98431396 150.42001343 C25.48460831 152.9744022 24.38862629 155.51628701 23.35154724 158.28866577 C21.32972658 163.18930464 19.1551485 167.58060849 15 171 C6.97340063 174.08210989 -2.27288893 172.97167795 -10.6953125 172.66015625 C-13.21442533 172.62842028 -15.7336436 172.60423498 -18.25289917 172.58726501 C-24.18716965 172.5291695 -30.11662215 172.39547942 -36.04842365 172.22432369 C-42.80713201 172.03358843 -49.56611326 171.9406673 -56.32684731 171.85550129 C-70.22087218 171.67830726 -84.11013997 171.37975981 -98 171 C-97.06691809 169.11380732 -96.13147286 167.22878366 -95.19506836 165.34423828 C-94.41407021 163.76946213 -94.41407021 163.76946213 -93.61729431 162.16287231 C-91.12351817 157.28590251 -88.35509721 152.58522083 -85.5625 147.875 C-84.32231764 145.76597714 -83.08275562 143.65658939 -81.84375 141.546875 C-80.89242188 139.92942383 -80.89242188 139.92942383 -79.921875 138.27929688 C-76.77515892 132.91005267 -73.66841381 127.51791809 -70.5625 122.125 C-69.94060791 121.04589355 -69.31871582 119.96678711 -68.67797852 118.85498047 C-67.41550269 116.66417049 -66.15321444 114.4732524 -64.89111328 112.28222656 C-61.76319852 106.85340058 -58.63141552 101.42680719 -55.5 96 C-54.24998121 93.83334417 -52.99998122 91.6666775 -51.75 89.5 C-44.25 76.5 -36.75 63.5 -29.25 50.5 C-28.6302832 49.42580811 -28.01056641 48.35161621 -27.37207031 47.24487305 C-26.13189239 45.09526366 -24.89165873 42.94568642 -23.65136719 40.79614258 C-20.7264977 35.72690788 -17.80219167 30.65735064 -14.87988281 25.5866394 C-13.50193062 23.19573403 -12.12365828 20.80501328 -10.74536133 18.41430664 C-9.77459018 16.73016037 -8.80428126 15.04574769 -7.83398438 13.36132812 C-7.24423828 12.33845703 -6.65449219 11.31558594 -6.046875 10.26171875 C-5.52963867 9.36412842 -5.01240234 8.46653809 -4.47949219 7.54174805 C-3.0082728 5.01421255 -1.51048171 2.5042345 0 0 Z " fill="#FDBF0A" transform="translate(383,256)"/>
<path d="M0 0 C37.29 0 74.58 0 113 0 C144.875 55.25 144.875 55.25 176.75 110.5 C177.36979736 111.57419189 177.98959473 112.64838379 178.62817383 113.75512695 C179.86802723 115.90445415 181.1074535 118.05402781 182.34643555 120.20385742 C185.27163763 125.27834489 188.20111723 130.35021617 191.14590454 135.4133606 C192.5354863 137.80315668 193.92262172 140.19436836 195.30957031 142.58569336 C196.28863253 144.27140589 197.27122606 145.95506587 198.25390625 147.63867188 C198.846875 148.66154297 199.43984375 149.68441406 200.05078125 150.73828125 C200.57325439 151.63587158 201.09572754 152.53346191 201.6340332 153.45825195 C205.15926169 160.01788623 205.15926169 160.01788623 204.625 163.3125 C204.41875 163.869375 204.2125 164.42625 204 165 C203.58492187 164.1234375 203.16984375 163.246875 202.7421875 162.34375 C197.63558581 151.75926126 191.80949249 141.66618129 185.84375 131.546875 C181.83002476 124.73508052 177.9106283 117.87118232 174 111 C169.04738926 102.30532435 164.05629738 93.63495534 159 85 C153.9436896 76.36502242 148.9540587 67.69386405 144 59 C134.1547604 41.54085577 134.1547604 41.54085577 123.87036133 24.34259033 C122.43368206 21.77504889 121.38071974 19.48581931 120.33789062 16.76861572 C118.28414419 11.89240118 116.08936159 7.47274495 112 4 C104.34880462 0.8978809 95.48086633 1.88453467 87.3984375 2.12109375 C84.99136033 2.13037247 82.58424351 2.13213634 80.17715454 2.12672424 C73.86525509 2.13259893 67.55907839 2.2400343 61.24865723 2.36914062 C54.80023179 2.48293756 48.35161604 2.50001423 41.90234375 2.52539062 C29.26627215 2.5892876 16.63383763 2.75726983 4 3 C3.67 4.32 3.34 5.64 3 7 C2.01 4.69 1.02 2.38 0 0 Z " fill="#52A06B" transform="translate(285,85)"/>
<path d="M0 0 C1.84526504 2.76789757 2.68073478 4.81572139 3.69921875 7.93359375 C6.01556242 14.43664057 9.28868978 20.14701281 12.8125 26.0625 C13.81876615 27.77866624 14.82501817 29.49484097 15.83041382 31.21151733 C16.86683256 32.97871158 17.90701683 34.74364691 18.94775391 36.50830078 C22.17147899 41.982576 25.33193836 47.4933982 28.5 53 C29.74971314 55.16683214 30.99971385 57.33349844 32.25 59.5 C54.75 98.5 54.75 98.5 56.62548828 101.75097656 C57.87371034 103.91447476 59.12208239 106.07788643 60.37060547 108.24121094 C63.52405256 113.70565017 66.67476096 119.17163645 69.8203125 124.640625 C70.45775391 125.74792969 71.09519531 126.85523438 71.75195312 127.99609375 C72.9313578 130.04498654 74.10987081 132.09439311 75.28710938 134.14453125 C76.42291627 136.11676473 77.58448832 138.07436095 78.77000427 140.01712036 C80.55660204 143.05655065 81.96048342 146.16815932 83.35377502 149.40524292 C88.03976757 159.98599522 88.03976757 159.98599522 96.57616425 167.25183105 C103.97691115 169.1709859 111.54132445 168.67426964 119.11328125 168.3671875 C121.53845338 168.34856419 123.9637182 168.33969716 126.38896179 168.34011841 C132.73723119 168.31526611 139.07554058 168.15900323 145.42089844 167.97418213 C151.90935497 167.80881604 158.39848482 167.76925804 164.88867188 167.71875 C177.59605852 167.60149098 190.29698556 167.34949329 203 167 C203.33 167.99 203.66 168.98 204 170 C167.37 170 130.74 170 93 170 C71.75 133.16666667 50.5 96.33333333 29.25 59.5 C28.3204248 57.88919556 28.3204248 57.88919556 27.37207031 56.24584961 C26.1307634 54.09363582 24.890517 51.94080999 23.65136719 49.78735352 C20.74711282 44.74314237 17.83309985 39.70547629 14.87988281 34.68978882 C13.83720374 32.91777291 12.7979808 31.14377499 11.75976562 29.36914062 C10.45799113 27.14638281 9.14979469 24.92736853 7.83398438 22.71289062 C-0.77176932 7.9749496 -0.77176932 7.9749496 0 0 Z " fill="#4878D4" transform="translate(21,257)"/>
<path d="M0 0 C3.1975539 2.9433916 5.27698333 5.88779138 7.3984375 9.671875 C8.03523438 10.79851562 8.67203125 11.92515625 9.328125 13.0859375 C9.66134766 13.68245117 9.99457031 14.27896484 10.33789062 14.89355469 C11.7542057 17.42878535 13.18471198 19.95590673 14.61456299 22.48352051 C15.34764791 23.77959081 16.08002516 25.07606164 16.81170654 26.3729248 C20.14896301 32.283269 23.56442462 38.14630046 27 44 C30.75117535 50.4008751 34.47644657 56.81513093 38.1484375 63.26171875 C38.67694305 64.18925461 38.67694305 64.18925461 39.21612549 65.13552856 C40.92107575 68.12937667 42.62273122 71.12500925 44.3203125 74.12304688 C48.11346726 80.79633464 52.03989309 87.36562001 56.08447266 93.8894043 C58.96647148 98.56943833 61.73915745 103.31028417 64.5 108.0625 C65.09039062 109.07634766 65.68078125 110.09019531 66.2890625 111.13476562 C71.24353972 119.65999055 76.13628119 128.22008129 81.01831055 136.78689575 C86.19086574 145.86257333 91.42626061 154.89959107 96.70654297 163.91308594 C99.83613635 169.2641674 102.93997549 174.62889814 106.0078125 180.015625 C106.34710281 180.61129776 106.68639313 181.20697052 107.03596497 181.82069397 C108.40467255 184.22484291 109.77278192 186.62932424 111.13815308 189.03536987 C114.58601274 195.10949165 118.06539829 201.15717532 121.71484375 207.11328125 C122.28251465 208.04043945 122.85018555 208.96759766 123.43505859 209.92285156 C124.49232952 211.63770504 125.55858799 213.34706138 126.63525391 215.04980469 C127.32820557 216.17177246 127.32820557 216.17177246 128.03515625 217.31640625 C128.4412915 217.96037354 128.84742676 218.60434082 129.26586914 219.26782227 C130 221 130 221 129 224 C126.7124904 221.07024778 124.80021208 218.05999635 122.953125 214.8359375 C122.36329834 213.80968262 121.77347168 212.78342773 121.16577148 211.72607422 C120.53356689 210.62021973 119.9013623 209.51436523 119.25 208.375 C118.58109459 207.2096351 117.91190004 206.04443611 117.24243164 204.87939453 C115.85137822 202.45802069 114.46157042 200.03593877 113.07275391 197.61328125 C109.87031591 192.02848942 106.65420687 186.45158197 103.4375 180.875 C102.50587036 179.25899902 102.50587036 179.25899902 101.55541992 177.61035156 C97.41509116 170.43442838 93.24573049 163.27597868 89.0625 156.125 C83.90190393 147.30251964 78.81099988 138.44229616 73.75 129.5625 C68.34267781 120.07595311 62.87480355 110.62974218 57.31640625 101.23095703 C46.12086011 82.25749623 35.18871543 63.13525856 24.28710938 43.9921875 C16.6515642 30.58612753 8.95667515 17.21875743 1 4 C0.09121094 5.65322266 0.09121094 5.65322266 -0.8359375 7.33984375 C-5.47296781 15.74691626 -10.18800634 24.09460391 -15.08496094 32.35302734 C-20.50193345 41.50400879 -25.74321608 50.75639057 -31 60 C-31.66 60 -32.32 60 -33 60 C-33.17438599 61.10686157 -33.17438599 61.10686157 -33.35229492 62.23608398 C-34.00370064 65.01579154 -34.86766369 66.81157172 -36.36328125 69.22265625 C-36.83660889 70.00342529 -37.30993652 70.78419434 -37.79760742 71.58862305 C-38.29752197 72.40500244 -38.79743652 73.22138184 -39.3125 74.0625 C-43.58730802 81.20868333 -46.97274277 87.87475302 -49 96 C-49.33 96 -49.66 96 -50 96 C-49.7471595 81.33525084 -39.08897207 67.85964531 -31.88671875 55.62890625 C-27.82486876 48.72283178 -23.8429332 41.77277191 -19.875 34.8125 C-19.20255919 33.6336241 -18.53011455 32.45475039 -17.85766602 31.27587891 C-16.54235706 28.96949351 -15.22761468 26.66278746 -13.91308594 24.35595703 C-10.94628221 19.15155632 -7.97305889 13.95082904 -5 8.75 C-4.02080006 7.03647735 -3.04162963 5.32293783 -2.0625 3.609375 C-1.375 2.40625 -0.6875 1.203125 0 0 Z " fill="#6C97E5" transform="translate(71,159)"/>
<path d="M0 0 C3.13576152 2.88840272 5.15369248 5.71098562 7.1796875 9.453125 C7.77136719 10.534729 8.36304688 11.61633301 8.97265625 12.73071289 C9.28219238 13.30355011 9.59172852 13.87638733 9.91064453 14.46658325 C11.56812132 17.53181382 13.24977153 20.58374568 14.9296875 23.63671875 C15.27143005 24.2588475 15.61317261 24.88097626 15.965271 25.5219574 C19.21561806 31.42437229 22.58785646 37.25219897 26 43.0625 C26.56879883 44.03195557 27.13759766 45.00141113 27.72363281 46.00024414 C28.88557165 47.98040607 30.04768213 49.96046729 31.20996094 51.94042969 C41.92304729 70.25144962 52.42169451 88.68910156 62.91796875 107.125 C68.74679868 117.3549153 74.63772812 127.54615448 80.57983398 137.71069336 C86.7994521 148.35481239 92.95544241 159.03530529 99.10888672 169.71777344 C102.23680146 175.14659938 105.36853731 180.57322007 108.5 186 C112.26363919 192.52233275 116.02644622 199.04513762 119.78515625 205.5703125 C126.02127925 216.39364167 132.27191602 227.20821351 138.5625 238 C139.40180054 239.44076904 139.40180054 239.44076904 140.25805664 240.91064453 C143.79365186 246.96786099 147.37754727 252.99433325 151 259 C151.28198242 258.4652002 151.56396484 257.93040039 151.85449219 257.37939453 C153.14132538 254.95485746 154.44538154 252.54001001 155.75 250.125 C156.1934375 249.28324219 156.636875 248.44148437 157.09375 247.57421875 C157.53203125 246.76855469 157.9703125 245.96289062 158.421875 245.1328125 C158.81987305 244.38918457 159.21787109 243.64555664 159.62792969 242.87939453 C161.19871171 240.72781446 162.55546309 239.98599351 165 239 C161.05529386 247.23078108 156.58003647 255.1127908 152 263 C148.97162017 260.18356986 146.8925268 257.4279552 144.85546875 253.8359375 C144.26902588 252.81000488 143.68258301 251.78407227 143.07836914 250.72705078 C142.14238892 249.06778564 142.14238892 249.06778564 141.1875 247.375 C140.52207918 246.20648317 139.85596943 245.03835842 139.18920898 243.87060547 C137.80612307 241.44712547 136.42600643 239.02199033 135.04785156 236.59570312 C131.91589813 231.08828176 128.73585646 225.60862739 125.5625 220.125 C121.66303235 213.3754878 117.77695179 206.61870298 113.921875 199.84375 C107.55763521 188.6617318 101.16362322 177.50884678 94.50048828 166.50097656 C88.48565017 156.54022685 82.71802333 146.43648743 76.92333984 136.34667969 C73.78945793 130.89361377 70.64425723 125.44708772 67.5 120 C66.24994361 117.83336586 64.99994366 115.66669917 63.75 113.5 C63.13125 112.4275 62.5125 111.355 61.875 110.25 C41.25 74.5 41.25 74.5 39.37475586 71.24951172 C38.12564482 69.08442929 36.87645871 66.91939018 35.62719727 64.75439453 C32.48797691 59.31384294 29.35009437 53.87252784 26.21484375 48.4296875 C25.27729248 46.80293091 25.27729248 46.80293091 24.32080078 45.14331055 C23.07490432 42.98116174 21.82977482 40.8185708 20.58544922 38.65551758 C17.41562001 33.15335434 14.21978066 27.6686162 10.98046875 22.20703125 C10.33343994 21.11213379 9.68641113 20.01723633 9.01977539 18.88916016 C7.78680435 16.80577113 6.54800535 14.72581649 5.30249023 12.64990234 C4.75149658 11.71742676 4.20050293 10.78495117 3.6328125 9.82421875 C2.90408936 8.60351685 2.90408936 8.60351685 2.16064453 7.3581543 C0.94779739 4.89393668 0.41276913 2.70523 0 0 Z " fill="#27925E" transform="translate(289,90)"/>
<path d="M0 0 C2.51911283 0.03173597 5.0383311 0.05592127 7.55758667 0.07289124 C13.49185715 0.13098675 19.42130965 0.26467683 25.35311115 0.43583256 C32.11181951 0.62656782 38.87080076 0.71948895 45.63153481 0.80465496 C59.52555968 0.98184899 73.41482747 1.28039644 87.3046875 1.66015625 C86.3146875 3.97015625 85.3246875 6.28015625 84.3046875 8.66015625 C83.3146875 7.17515625 83.3146875 7.17515625 82.3046875 5.66015625 C80.3691737 5.14790689 80.3691737 5.14790689 78.09625244 5.13789368 C77.21342087 5.09908585 76.33058929 5.06027802 75.42100525 5.02029419 C74.44966141 4.99337494 73.47831757 4.96645569 72.47753906 4.9387207 C71.45610306 4.8997316 70.43466705 4.86074249 69.38227844 4.8205719 C58.66150571 4.43928089 47.93355194 4.26992888 37.20751953 4.11547852 C32.1231045 4.03540707 27.04719988 3.88960385 21.96630859 3.68481445 C-4.21250581 1.0014105 -4.21250581 1.0014105 -28.3425293 7.99017334 C-33.54948215 13.50364386 -36.08537018 19.5790394 -37.92687988 26.85971069 C-38.9522439 30.59650692 -40.60644657 33.41870258 -42.6953125 36.66015625 C-43.3553125 36.66015625 -44.0153125 36.66015625 -44.6953125 36.66015625 C-44.84734131 37.19310303 -44.99937012 37.7260498 -45.15600586 38.27514648 C-47.09406126 44.59691491 -49.90457397 50.04286064 -53.2578125 55.72265625 C-53.75216797 56.58826172 -54.24652344 57.45386719 -54.75585938 58.34570312 C-57.50039297 63.05114841 -57.50039297 63.05114841 -58.6953125 64.66015625 C-59.3553125 64.66015625 -60.0153125 64.66015625 -60.6953125 64.66015625 C-60.7778125 65.34078125 -60.8603125 66.02140625 -60.9453125 66.72265625 C-61.91863778 70.53484695 -63.65338705 73.30085954 -65.6953125 76.66015625 C-66.3553125 76.66015625 -67.0153125 76.66015625 -67.6953125 76.66015625 C-66.4377018 72.55118338 -64.91555058 69.00608639 -62.74609375 65.30078125 C-62.15272217 64.28040771 -61.55935059 63.26003418 -60.94799805 62.20874023 C-59.9876062 60.57594116 -59.9876062 60.57594116 -59.0078125 58.91015625 C-57.99346683 57.16978372 -56.97913014 55.42940588 -55.96534729 53.68870544 C-54.91240771 51.88219462 -53.85716714 50.07704147 -52.80175781 48.27197266 C-49.46770121 42.56322148 -46.1788198 36.82843263 -42.8828125 31.09765625 C-41.17409329 28.12693238 -39.46844927 25.16347908 -37.67962646 22.24014282 C-36.17992081 19.68575405 -35.08393879 17.14386924 -34.04685974 14.37149048 C-27.29873669 -1.98511062 -15.97282493 -0.59078975 0 0 Z " fill="#E4766D" transform="translate(139.6953125,83.33984375)"/>
<path d="M0 0 C0.99 0.99 0.99 0.99 2 2 C1.6596875 2.58040039 1.319375 3.16080078 0.96875 3.75878906 C-6.06374645 15.76172682 -13.04654797 27.79019844 -19.9375 39.875 C-26.96598766 52.20027894 -34.0424045 64.49722095 -41.14111328 76.78222656 C-44.26324605 82.18670645 -47.38141204 87.59347412 -50.5 93 C-51.74998122 95.1666775 -52.99998121 97.33334417 -54.25 99.5 C-54.86875 100.5725 -55.4875 101.645 -56.125 102.75 C-58.9375 107.625 -58.9375 107.625 -61.75 112.5 C-62.3694751 113.57378906 -62.9889502 114.64757812 -63.62719727 115.75390625 C-64.86976019 117.9076172 -66.11243489 120.06126367 -67.35522461 122.21484375 C-70.25314623 127.23684262 -73.15003349 132.25942807 -76.04275513 137.28442383 C-77.05947198 139.05045522 -78.07655658 140.81627431 -79.09375 142.58203125 C-80.36400873 144.78734155 -81.63359018 146.99304216 -82.90234375 149.19921875 C-84.59489282 152.13673169 -86.29714574 155.06845308 -88 158 C-88.55929199 158.9796875 -89.11858398 159.959375 -89.69482422 160.96875 C-90.49364014 162.34546875 -90.49364014 162.34546875 -91.30859375 163.75 C-91.77966553 164.56984375 -92.2507373 165.3896875 -92.73608398 166.234375 C-93.15317627 166.81703125 -93.57026855 167.3996875 -94 168 C-94.66 168 -95.32 168 -96 168 C-94.70891809 164.60997279 -93.24218459 161.47839169 -91.453125 158.32421875 C-90.94547607 157.42678955 -90.43782715 156.52936035 -89.91479492 155.60473633 C-89.3654126 154.64204834 -88.81603027 153.67936035 -88.25 152.6875 C-87.67290283 151.67131592 -87.09580566 150.65513184 -86.5012207 149.6081543 C-81.87474475 141.48295661 -77.17017856 133.4043584 -72.44433594 125.33666992 C-67.91014131 117.58753438 -63.44422786 109.8008922 -59 102 C-53.48753141 92.32509216 -47.91575301 82.68717637 -42.2890625 73.078125 C-37.80833752 65.41426055 -33.39503749 57.71315311 -29 50 C-22.2862838 38.21863638 -15.48576875 26.48974967 -8.63232422 14.7890625 C-5.7491414 9.8627268 -2.87490277 4.93117093 0 0 Z " fill="#FECD3A" transform="translate(383,256)"/>
<path d="M0 0 C0.66 0 1.32 0 2 0 C0.125 5.875 0.125 5.875 -1 7 C-2.4674896 7.09565123 -3.93956884 7.12188309 -5.41017151 7.12025452 C-6.36234558 7.12162918 -7.31451965 7.12300385 -8.29554749 7.12442017 C-9.34858566 7.12082489 -10.40162384 7.11722961 -11.48657227 7.11352539 C-12.58887177 7.11367142 -13.69117126 7.11381744 -14.82687378 7.1139679 C-18.49007092 7.11326821 -22.15321794 7.10547324 -25.81640625 7.09765625 C-28.34846468 7.09579227 -30.88052348 7.09436827 -33.4125824 7.09336853 C-39.40848249 7.08993346 -45.40436089 7.08204269 -51.40025228 7.07201904 C-58.22481058 7.06085677 -65.04936972 7.05534717 -71.87393486 7.05032361 C-85.91596664 7.03986004 -99.95798233 7.0222613 -114 7 C-113.67 6.01 -113.34 5.02 -113 4 C-112.4297793 3.99761165 -111.8595586 3.99522329 -111.27205849 3.99276257 C-97.40985555 3.93367693 -83.54782955 3.85797838 -69.68581581 3.76428509 C-62.98229161 3.71928183 -56.27882108 3.67987783 -49.57519531 3.65356445 C-43.11065436 3.62763122 -36.64635147 3.58730013 -30.18195724 3.53681374 C-27.71073737 3.52007727 -25.23947627 3.50860543 -22.76820755 3.50238609 C-19.31738334 3.49281859 -15.86717761 3.46484771 -12.41650391 3.43237305 C-10.87039177 3.43452568 -10.87039177 3.43452568 -9.29304504 3.4367218 C-7.8879644 3.41791458 -7.8879644 3.41791458 -6.45449829 3.39872742 C-5.63778971 3.39411845 -4.82108112 3.38950949 -3.97962379 3.38476086 C-3.32634794 3.25778977 -2.67307209 3.13081869 -2 3 C-1.34 2.01 -0.68 1.02 0 0 Z " fill="#F0A10A" transform="translate(399,420)"/>
<path d="M0 0 C37.29 0 74.58 0 113 0 C113 0.99 113 1.98 113 3 C77.03 3 41.06 3 4 3 C3.67 4.32 3.34 5.64 3 7 C2.01 4.69 1.02 2.38 0 0 Z " fill="#4AB17D" transform="translate(285,85)"/>
<path d="M0 0 C0.99 0.495 0.99 0.495 2 1 C3.45679137 1.10367861 4.91814176 1.14646781 6.37857056 1.15821838 C7.29846268 1.1680072 8.2183548 1.17779602 9.16612244 1.18788147 C10.17816238 1.19363693 11.19020233 1.1993924 12.23291016 1.20532227 C13.2963414 1.21522186 14.35977264 1.22512146 15.45542908 1.23532104 C18.98328395 1.2670008 22.51115232 1.29171907 26.0390625 1.31640625 C28.48001462 1.33697018 30.92096314 1.3579665 33.36190796 1.37937927 C39.79643845 1.43465783 46.23100138 1.48404158 52.66558838 1.53222656 C59.22760923 1.5823994 65.78958279 1.63810745 72.3515625 1.69335938 C85.23433435 1.80101168 98.11714655 1.90262875 111 2 C111.495 3.485 111.495 3.485 112 5 C75.37 5 38.74 5 1 5 C0.67 3.35 0.34 1.7 0 0 Z " fill="#3E73D9" transform="translate(113,422)"/>
<path d="M0 0 C2.8455204 3.40833646 5.18211602 6.83466984 7.36328125 10.69921875 C7.99508301 11.81264648 8.62688477 12.92607422 9.27783203 14.07324219 C9.6089801 14.6614978 9.94012817 15.24975342 10.28131104 15.85583496 C11.69401158 18.36516574 13.11650093 20.86890297 14.53820801 23.37313843 C15.27366346 24.66893019 16.00860393 25.96501438 16.74304199 27.26138306 C20.33957703 33.60869578 23.9764919 39.93242646 27.625 46.25 C28.23504883 47.30662842 28.84509766 48.36325684 29.47363281 49.4519043 C33.82206372 56.97639504 38.18660297 64.49145145 42.5625 72 C43.12211426 72.96067383 43.68172852 73.92134766 44.25830078 74.91113281 C47.79387081 80.96815336 51.37764105 86.99448873 55 93 C55.28198242 92.4652002 55.56396484 91.93040039 55.85449219 91.37939453 C57.14132538 88.95485746 58.44538154 86.54001001 59.75 84.125 C60.1934375 83.28324219 60.636875 82.44148438 61.09375 81.57421875 C61.53203125 80.76855469 61.9703125 79.96289062 62.421875 79.1328125 C62.81987305 78.38918457 63.21787109 77.64555664 63.62792969 76.87939453 C65.19871171 74.72781446 66.55546309 73.98599351 69 73 C65.05529386 81.23078108 60.58003647 89.1127908 56 97 C52.97162017 94.18356986 50.8925268 91.4279552 48.85546875 87.8359375 C48.26902588 86.81000488 47.68258301 85.78407227 47.07836914 84.72705078 C46.45438232 83.62087402 45.83039551 82.51469727 45.1875 81.375 C44.52207918 80.20648317 43.85596943 79.03835842 43.18920898 77.87060547 C41.80612307 75.44712547 40.42600643 73.02199033 39.04785156 70.59570312 C35.91589779 65.08828118 32.7357894 59.60866677 29.5625 54.125 C25.59549659 47.25677097 21.64169145 40.38121728 17.7109375 33.4921875 C17.3529155 32.86482697 16.99489349 32.23746643 16.62602234 31.59109497 C14.89999059 28.56582778 13.17549909 25.53969698 11.45336914 22.51220703 C10.82809326 21.41505371 10.20281738 20.31790039 9.55859375 19.1875 C8.66503174 17.61935547 8.66503174 17.61935547 7.75341797 16.01953125 C5.59659603 12.30530489 3.34328216 8.65545217 1.05102539 5.0234375 C0 3 0 3 0 0 Z " fill="#258C4F" transform="translate(385,256)"/>
<path d="M0 0 C0.99 0.99 1.98 1.98 3 3 C2.09749512 3.8355542 2.09749512 3.8355542 1.17675781 4.68798828 C-1.02961526 7.03145542 -2.34898206 9.14576511 -3.828125 11.9921875 C-4.34181641 12.96381836 -4.85550781 13.93544922 -5.38476562 14.93652344 C-5.91779297 15.9474707 -6.45082031 16.95841797 -7 18 C-8.09299661 19.9850651 -9.19202724 21.96681901 -10.296875 23.9453125 C-10.85858398 24.95215088 -11.42029297 25.95898926 -11.99902344 26.99633789 C-16.87467775 35.70820487 -21.75357334 44.41916988 -26.75 53.0625 C-27.15573242 53.77615723 -27.56146484 54.48981445 -27.97949219 55.22509766 C-28.92914796 56.85149603 -29.95629931 58.43229256 -31 60 C-31.66 60 -32.32 60 -33 60 C-33.17438599 61.10686157 -33.17438599 61.10686157 -33.35229492 62.23608398 C-34.00370064 65.01579154 -34.86766369 66.81157172 -36.36328125 69.22265625 C-36.83660889 70.00342529 -37.30993652 70.78419434 -37.79760742 71.58862305 C-38.29752197 72.40500244 -38.79743652 73.22138184 -39.3125 74.0625 C-43.58730802 81.20868333 -46.97274277 87.87475302 -49 96 C-49.33 96 -49.66 96 -50 96 C-49.7471595 81.33525084 -39.08897207 67.85964531 -31.88671875 55.62890625 C-27.82486876 48.72283178 -23.8429332 41.77277191 -19.875 34.8125 C-19.20255919 33.6336241 -18.53011455 32.45475039 -17.85766602 31.27587891 C-16.54235706 28.96949351 -15.22761468 26.66278746 -13.91308594 24.35595703 C-10.94628221 19.15155632 -7.97305889 13.95082904 -5 8.75 C-4.02080006 7.03647735 -3.04162963 5.32293783 -2.0625 3.609375 C-1.375 2.40625 -0.6875 1.203125 0 0 Z " fill="#75A5F4" transform="translate(71,159)"/>
<path d="M0 0 C1.11339545 2.75374141 1.09308688 3.77884763 -0.07983398 6.56542969 C-0.62969971 7.50805664 -1.17956543 8.45068359 -1.74609375 9.421875 C-2.63071289 10.95908203 -2.63071289 10.95908203 -3.53320312 12.52734375 C-4.16162109 13.59082031 -4.79003906 14.65429688 -5.4375 15.75 C-6.37432617 17.36841797 -6.37432617 17.36841797 -7.33007812 19.01953125 C-8.87584639 21.68627649 -10.43275407 24.34583912 -12 27 C-12.66 27 -13.32 27 -14 27 C-14.15202881 27.53294678 -14.30405762 28.06589355 -14.46069336 28.61499023 C-16.39874876 34.93675866 -19.20926147 40.38270439 -22.5625 46.0625 C-23.05685547 46.92810547 -23.55121094 47.79371094 -24.06054688 48.68554688 C-26.80508047 53.39099216 -26.80508047 53.39099216 -28 55 C-28.66 55 -29.32 55 -30 55 C-30.0825 55.680625 -30.165 56.36125 -30.25 57.0625 C-31.22332528 60.8746907 -32.95807455 63.64070329 -35 67 C-35.66 67 -36.32 67 -37 67 C-35.7423893 62.89102713 -34.22023808 59.34593014 -32.05078125 55.640625 C-31.16011963 54.1090979 -31.16011963 54.1090979 -30.25146484 52.54663086 C-29.61160645 51.45874268 -28.97174805 50.37085449 -28.3125 49.25 C-27.30343243 47.51804223 -26.29437345 45.78607939 -25.28582764 44.05381775 C-24.23503417 42.25055192 -23.18189946 40.44866922 -22.12841797 38.64697266 C-18.68742921 32.75722803 -15.28296042 26.84639151 -11.875 20.9375 C-11.26052002 19.87499023 -10.64604004 18.81248047 -10.01293945 17.71777344 C-6.6189155 11.84222335 -3.27021324 5.94541633 0 0 Z " fill="#E47B72" transform="translate(109,93)"/>
<path d="M0 0 C0.99 0.33 1.98 0.66 3 1 C2.61779297 1.65371582 2.23558594 2.30743164 1.84179688 2.98095703 C-8.65846845 20.94468092 -8.65846845 20.94468092 -19 39 C-19.66 38.67 -20.32 38.34 -21 38 C-19.61557021 34.29423268 -17.92775791 30.98301429 -15.91796875 27.578125 C-15.31533203 26.55203125 -14.71269531 25.5259375 -14.09179688 24.46875 C-13.46337891 23.4065625 -12.83496094 22.344375 -12.1875 21.25 C-8.03982367 14.21151896 -3.91989886 7.16846525 0 0 Z " fill="#C95A50" transform="translate(158,200)"/>
<path d="M0 0 C1.11339545 2.75374141 1.09308688 3.77884763 -0.07983398 6.56542969 C-0.62969971 7.50805664 -1.17956543 8.45068359 -1.74609375 9.421875 C-2.33583984 10.44667969 -2.92558594 11.47148438 -3.53320312 12.52734375 C-4.16162109 13.59082031 -4.79003906 14.65429688 -5.4375 15.75 C-6.06205078 16.82894531 -6.68660156 17.90789062 -7.33007812 19.01953125 C-8.87584639 21.68627649 -10.43275407 24.34583912 -12 27 C-12.66 27 -13.32 27 -14 27 C-14.268125 28.134375 -14.53625 29.26875 -14.8125 30.4375 C-15.204375 31.613125 -15.59625 32.78875 -16 34 C-17.485 34.495 -17.485 34.495 -19 35 C-17.4878574 30.90012619 -15.51996897 27.2407352 -13.33984375 23.45703125 C-12.81494102 22.54252449 -12.81494102 22.54252449 -12.2794342 21.60954285 C-11.16851124 19.67541897 -10.05316393 17.74389229 -8.9375 15.8125 C-7.81921578 13.8698627 -6.70184023 11.9267061 -5.58485413 9.98332214 C-4.57496225 8.22732994 -3.56280539 6.47264094 -2.55053711 4.71801758 C-1.66468416 3.16515962 -0.79951276 1.59902552 0 0 Z " fill="#E7837B" transform="translate(109,93)"/>
<path d="M0 0 C2.91803181 3.47983678 5.25413937 6.98664053 7.453125 10.95703125 C8.071875 12.06884766 8.690625 13.18066406 9.328125 14.32617188 C9.96234375 15.47666016 10.5965625 16.62714844 11.25 17.8125 C11.90582426 18.99437697 12.56207039 20.17601994 13.21875 21.35742188 C14.81665988 24.23600952 16.41024584 27.11690267 18 30 C17.01 30 16.02 30 15 30 C12.8526318 26.37688727 10.71679183 22.74730218 8.59130859 19.11132812 C7.8668919 17.87576819 7.13937513 16.64202036 6.40869141 15.41015625 C5.35796867 13.63750836 4.31862583 11.85860835 3.28125 10.078125 C2.33862305 8.47565918 2.33862305 8.47565918 1.37695312 6.84082031 C0 4 0 4 0 0 Z " fill="#6490DC" transform="translate(209,396)"/>
<path d="M0 0 C0.66 0 1.32 0 2 0 C0.45614871 4.14032846 -1.51028938 7.93553053 -3.625 11.8125 C-4.11226563 12.7087207 -4.11226563 12.7087207 -4.609375 13.62304688 C-5.40379151 15.08337135 -6.20155376 16.54187491 -7 18 C-7.33 18 -7.66 18 -8 18 C-8.35796233 13.68110663 -7.3887032 11.34300158 -5.125 7.6875 C-4.59132813 6.80449219 -4.05765625 5.92148437 -3.5078125 5.01171875 C-3.01023437 4.34785156 -2.51265625 3.68398438 -2 3 C-1.34 3 -0.68 3 0 3 C0 2.01 0 1.02 0 0 Z " fill="#2C7F49" transform="translate(485,271)"/>
<path d="M0 0 C1 3 1 3 0.28735352 4.80932617 C-0.09493408 5.46392822 -0.47722168 6.11853027 -0.87109375 6.79296875 C-1.48500977 7.8612793 -1.48500977 7.8612793 -2.11132812 8.95117188 C-2.54896484 9.68916016 -2.98660156 10.42714844 -3.4375 11.1875 C-3.87126953 11.93708984 -4.30503906 12.68667969 -4.75195312 13.45898438 C-5.82557231 15.31127243 -6.91162681 17.1563425 -8 19 C-9.16035231 15.55146309 -9.06580577 15.13908225 -7.3828125 11.58203125 C-6.64275174 10.31809235 -5.88962648 9.06173089 -5.125 7.8125 C-4.55845703 6.85053711 -4.55845703 6.85053711 -3.98046875 5.86914062 C-1.22349838 1.22349838 -1.22349838 1.22349838 0 0 Z " fill="#C95D54" transform="translate(187,151)"/>
<path d="M0 0 C1 3 1 3 -0.21484375 5.69921875 C-0.78332031 6.68535156 -1.35179687 7.67148438 -1.9375 8.6875 C-2.50339844 9.68136719 -3.06929687 10.67523438 -3.65234375 11.69921875 C-4.31943359 12.83810547 -4.31943359 12.83810547 -5 14 C-5.66 13.67 -6.32 13.34 -7 13 C-5.35821735 8.22390502 -2.73453298 4.20617096 0 0 Z " fill="#C25348" transform="translate(144,225)"/>
<path d="M0 0 C0.66 0.33 1.32 0.66 2 1 C-0.31 4.96 -2.62 8.92 -5 13 C-5.33 11.68 -5.66 10.36 -6 9 C-5.34 9 -4.68 9 -4 9 C-3.896875 8.2575 -3.79375 7.515 -3.6875 6.75 C-2.95746496 3.82985982 -1.93210602 2.26812446 0 0 Z " fill="#24834D" transform="translate(460,315)"/>
<path d="M0 0 C0.66 0 1.32 0 2 0 C0.43358249 4.30764815 -1.68336156 8.06171464 -4 12 C-4.9435441 9.46100862 -5.16906025 8.39090725 -4.07421875 5.859375 C-3.61660156 5.16328125 -3.15898437 4.4671875 -2.6875 3.75 C-2.23761719 3.04359375 -1.78773438 2.3371875 -1.32421875 1.609375 C-0.88722656 1.07828125 -0.45023437 0.5471875 0 0 Z " fill="#E99109" transform="translate(436,356)"/>
<path d="M0 0 C0.66 0.66 1.32 1.32 2 2 C0.02 5.63 -1.96 9.26 -4 13 C-5 9 -5 9 -4.00390625 6.640625 C-3.52824219 5.85171875 -3.05257812 5.0628125 -2.5625 4.25 C-2.08941406 3.45078125 -1.61632812 2.6515625 -1.12890625 1.828125 C-0.75636719 1.22484375 -0.38382813 0.6215625 0 0 Z " fill="#CA5F56" transform="translate(168,183)"/>
<path d="M0 0 C1 3 1 3 0.22265625 4.82421875 C-0.8515625 6.54947917 -1.92578125 8.27473958 -3 10 C-3.66 9.67 -4.32 9.34 -5 9 C-3.7508258 5.54074837 -2.32472205 2.85306797 0 0 Z " fill="#B04D45" transform="translate(132,246)"/>
<path d="M0 0 C1 3 1 3 0.00390625 5.26171875 C-0.47175781 6.06222656 -0.94742188 6.86273438 -1.4375 7.6875 C-1.91058594 8.49574219 -2.38367188 9.30398437 -2.87109375 10.13671875 C-3.24363281 10.75160156 -3.61617187 11.36648437 -4 12 C-4.65234375 10.265625 -4.65234375 10.265625 -5 8 C-4.00390625 5.859375 -4.00390625 5.859375 -2.5625 3.75 C-2.08941406 3.04359375 -1.61632812 2.3371875 -1.12890625 1.609375 C-0.75636719 1.07828125 -0.38382813 0.5471875 0 0 Z " fill="#C85A50" transform="translate(176,170)"/>
<path d="M0 0 C1 3 1 3 0.00390625 5.26171875 C-0.47175781 6.06222656 -0.94742188 6.86273438 -1.4375 7.6875 C-1.91058594 8.49574219 -2.38367188 9.30398437 -2.87109375 10.13671875 C-3.24363281 10.75160156 -3.61617187 11.36648437 -4 12 C-4.65234375 10.265625 -4.65234375 10.265625 -5 8 C-4.00390625 5.859375 -4.00390625 5.859375 -2.5625 3.75 C-2.08941406 3.04359375 -1.61632812 2.3371875 -1.12890625 1.609375 C-0.75636719 1.07828125 -0.38382813 0.5471875 0 0 Z " fill="#C95C53" transform="translate(202,125)"/>
<path d="M0 0 C0.66 0.33 1.32 0.66 2 1 C-0.475 5.455 -0.475 5.455 -3 10 C-4 6 -4 6 -2.0625 2.75 C-1.381875 1.8425 -0.70125 0.935 0 0 Z " fill="#25824C" transform="translate(475,289)"/>
<path d="M0 0 C0.66 0 1.32 0 2 0 C0.7508258 3.45925163 -0.67527795 6.14693203 -3 9 C-2.5020163 5.26512223 -2.12508244 3.18762365 0 0 Z " fill="#2E7E48" transform="translate(469,299)"/>
</svg>
